<svg width="31" height="30" viewBox="0 0 31 30" fill="none" xmlns="http://www.w3.org/2000/svg">
<path d="M7.97796 19.075L12.3081 13.6119L17.2475 17.3782L21.4849 12.0693" stroke="#ADA4A5" stroke-width="3" stroke-linecap="round" stroke-linejoin="round"/>
<path d="M29.205 4.21511C29.205 5.70598 27.96 6.91456 26.4241 6.91456C24.8883 6.91456 23.6433 5.70598 23.6433 4.21511C23.6433 2.72425 24.8883 1.51566 26.4241 1.51566C27.96 1.51566 29.205 2.72425 29.205 4.21511Z" stroke="#ADA4A5" stroke-width="3" stroke-linecap="round" stroke-linejoin="round"/>
<path d="M19.088 2.69817H8.57372C4.21706 2.69817 1.51566 5.69328 1.51566 9.92241V21.2729C1.51566 25.5021 4.16409 28.4843 8.57372 28.4843H21.0213C25.378 28.4843 28.0794 25.5021 28.0794 21.2729V11.3878" stroke="#ADA4A5" stroke-width="3" stroke-linecap="round" stroke-linejoin="round"/>
</svg>
