<svg width="23" height="24" viewBox="0 0 23 24" fill="none" xmlns="http://www.w3.org/2000/svg">
<path fill-rule="evenodd" clip-rule="evenodd" d="M19.1668 0.878662C18.3735 0.878662 17.6127 1.20751 17.0517 1.79288L7.94752 11.2929C7.8247 11.421 7.73757 11.5816 7.69544 11.7574L6.73711 15.7574C6.65547 16.0982 6.75115 16.4587 6.98919 16.7071C7.22722 16.9555 7.57268 17.0553 7.89926 16.9701L11.7326 15.9701C11.9011 15.9262 12.055 15.8352 12.1778 15.7071L21.282 6.20709C21.8429 5.62173 22.1581 4.82781 22.1581 3.99998C22.1581 3.17216 21.8429 2.37824 21.282 1.79288C20.721 1.20751 19.9602 0.878662 19.1668 0.878662ZM18.407 3.20709C18.6085 2.9968 18.8818 2.87866 19.1668 2.87866C19.4518 2.87866 19.7252 2.9968 19.9267 3.20709C20.1282 3.41738 20.2414 3.70259 20.2414 3.99998C20.2414 4.29737 20.1282 4.58259 19.9267 4.79288L11.0102 14.097L8.98393 14.6256L9.4905 12.5112L18.407 3.20709Z" fill="#02C338"/>
<path d="M3.8335 3C3.071 3 2.33973 3.31607 1.80056 3.87868C1.2614 4.44129 0.958496 5.20435 0.958496 6V20C0.958496 20.7957 1.2614 21.5587 1.80056 22.1213C2.33973 22.6839 3.071 23 3.8335 23H17.2502C18.0127 23 18.7439 22.6839 19.2831 22.1213C19.8223 21.5587 20.1252 20.7957 20.1252 20V13C20.1252 12.4477 19.6961 12 19.1668 12C18.6376 12 18.2085 12.4477 18.2085 13V20C18.2085 20.2652 18.1075 20.5196 17.9278 20.7071C17.7481 20.8946 17.5043 21 17.2502 21H3.8335C3.57933 21 3.33557 20.8946 3.15585 20.7071C2.97613 20.5196 2.87516 20.2652 2.87516 20V6C2.87516 5.73478 2.97613 5.48043 3.15585 5.29289C3.33557 5.10536 3.57933 5 3.8335 5H10.5418C11.0711 5 11.5002 4.55228 11.5002 4C11.5002 3.44772 11.0711 3 10.5418 3H3.8335Z" fill="#02C338"/>
</svg>
