<svg width="23" height="24" viewBox="0 0 23 24" fill="none" xmlns="http://www.w3.org/2000/svg">
<path fill-rule="evenodd" clip-rule="evenodd" d="M18.8429 0.999995H5.48677C4.79553 0.993336 4.12505 1.24679 3.59824 1.71405C3.07014 2.18245 2.72199 2.83415 2.61786 3.54916L1.29525 12.5499C1.23271 12.9799 1.2605 13.4189 1.3767 13.8366C1.4929 14.2542 1.69473 14.6405 1.9682 14.9687C2.24168 15.2968 2.58026 15.559 2.96049 15.7371C3.33891 15.9143 3.74958 16.004 4.1643 16H8.62523V19C8.62523 20.0609 9.0291 21.0783 9.74799 21.8284C10.4669 22.5786 11.4419 23 12.4586 23C12.8373 23 13.1805 22.7673 13.3343 22.4061L16.9147 14H18.8429C19.6169 14.0119 20.3684 13.7282 20.9559 13.202C21.5457 12.6737 21.9291 11.9378 22.0333 11.134C22.039 11.0896 22.0419 11.0448 22.0419 11V4C22.0419 3.95516 22.039 3.91038 22.0333 3.86595C21.9291 3.06218 21.5457 2.3263 20.9559 1.79802C20.3684 1.27182 19.6169 0.988062 18.8429 0.999995ZM18.8676 2.99984C19.1752 2.99416 19.4741 3.10653 19.7075 3.31561C19.9269 3.5121 20.0741 3.78114 20.1252 4.07686V10.9231C20.0741 11.2188 19.9269 11.4879 19.7075 11.6844C19.4741 11.8935 19.1752 12.0058 18.8676 12.0002L18.8507 12H17.2502V3H18.8507L18.8676 2.99984ZM11.8761 20.9054L15.3336 12.7878V3H5.47107C5.23995 2.99727 5.01568 3.08173 4.83957 3.23793C4.66346 3.39413 4.54739 3.61148 4.51273 3.84993L3.19021 12.8501C3.16947 12.9932 3.17868 13.1399 3.21736 13.2789C3.2561 13.4181 3.32337 13.5469 3.41453 13.6563C3.50569 13.7657 3.61855 13.8531 3.74529 13.9125C3.87204 13.9718 4.00963 14.0017 4.14855 14.0001L4.1594 13.9999L9.58357 14C10.1128 14 10.5419 14.4477 10.5419 15V19C10.5419 19.5304 10.7438 20.0391 11.1033 20.4142C11.3216 20.6421 11.5872 20.8092 11.8761 20.9054Z" fill="#FAFAFA"/>
</svg>
