<svg width="36" height="37" viewBox="0 0 36 37" fill="none" xmlns="http://www.w3.org/2000/svg">
<path fill-rule="evenodd" clip-rule="evenodd" d="M10.0269 3.46875C10.6422 3.46875 11.141 3.98642 11.141 4.625V6.9375H24.5101V4.625C24.5101 3.98642 25.0089 3.46875 25.6242 3.46875C26.2395 3.46875 26.7383 3.98642 26.7383 4.625V6.9375H27.8524C30.3136 6.9375 32.3088 9.00818 32.3088 11.5625V28.9062C32.3088 31.4606 30.3136 33.5312 27.8524 33.5312H7.79867C5.33747 33.5312 3.34229 31.4606 3.34229 28.9062V11.5625C3.34229 9.00818 5.33747 6.9375 7.79867 6.9375H8.91276V4.625C8.91276 3.98642 9.41156 3.46875 10.0269 3.46875ZM30.0806 17.3438C30.0806 16.0666 29.083 15.0312 27.8524 15.0312H7.79867C6.56807 15.0312 5.57048 16.0666 5.57048 17.3438V28.9062C5.57048 30.1834 6.56807 31.2188 7.79867 31.2188H27.8524C29.083 31.2188 30.0806 30.1834 30.0806 28.9062V17.3438Z" fill="#A5A5A7"/>
</svg>
