<svg width="18" height="18" viewBox="0 0 18 18" fill="none" xmlns="http://www.w3.org/2000/svg">
<path d="M6.10582 3.74727C7.24503 3.11912 8.55753 2.87824 9.84555 3.06094C11.1336 3.24363 12.3273 3.84 13.2469 4.76017C13.2523 4.76554 13.2577 4.77082 13.2632 4.77602L15.325 6.75H12.75C12.3358 6.75 12 7.08579 12 7.5C12 7.91421 12.3358 8.25 12.75 8.25H17.25C17.6642 8.25 18 7.91421 18 7.5V3C18 2.58579 17.6642 2.25 17.25 2.25C16.8358 2.25 16.5 2.58579 16.5 3V5.79837L14.2997 3.69161C13.1513 2.54607 11.6624 1.80363 10.0562 1.5758C8.44618 1.34743 6.80555 1.64853 5.38154 2.43371C3.95752 3.2189 2.82728 4.44564 2.16113 5.92907C1.49497 7.41251 1.329 9.07226 1.68821 10.6582C2.04743 12.2442 2.91237 13.6705 4.1527 14.7221C5.39304 15.7737 6.94156 16.3937 8.56493 16.4887C10.1883 16.5836 11.7985 16.1484 13.153 15.2486C14.5075 14.3488 15.5329 13.0331 16.0746 11.4998C16.2126 11.1093 16.0078 10.6808 15.6173 10.5428C15.2267 10.4049 14.7982 10.6096 14.6602 11.0002C14.2269 12.2268 13.4066 13.2793 12.323 13.9992C11.2394 14.719 9.95122 15.0672 8.65253 14.9912C7.35383 14.9153 6.11502 14.4193 5.12275 13.578C4.13048 12.7367 3.43853 11.5957 3.15116 10.3269C2.86378 9.0581 2.99656 7.7303 3.52949 6.54355C4.06241 5.35681 4.96661 4.37542 6.10582 3.74727Z" fill="black"/>
</svg>
