<svg width="17" height="17" viewBox="0 0 17 17" fill="none" xmlns="http://www.w3.org/2000/svg">
<g clip-path="url(#clip0_1528_2510)">
<path d="M17 6.67634C17 6.42431 16.8093 6.26769 16.4277 6.20632L11.2993 5.46066L9.00067 0.812124C8.87135 0.532867 8.70434 0.393311 8.50005 0.393311C8.2958 0.393311 8.1289 0.532867 7.99947 0.812124L5.70072 5.46066L0.57204 6.20632C0.190728 6.26769 0 6.42431 0 6.67634C0 6.81944 0.0851655 6.9829 0.255461 7.16679L3.97426 10.7834L3.09566 15.8915C3.08203 15.9869 3.07526 16.0552 3.07526 16.0959C3.07526 16.2389 3.11097 16.3598 3.18247 16.4586C3.25393 16.5576 3.36114 16.6068 3.50424 16.6068C3.62691 16.6068 3.76306 16.5661 3.91289 16.4843L8.49995 14.073L13.0873 16.4843C13.2306 16.5661 13.3668 16.6068 13.4958 16.6068C13.6325 16.6068 13.7361 16.5576 13.8076 16.4586C13.8789 16.3599 13.9146 16.2389 13.9146 16.0959C13.9146 16.0075 13.9112 15.9394 13.9044 15.8915L13.0257 10.7834L16.7342 7.16679C16.9116 6.9897 17 6.82617 17 6.67634Z" fill="#FFD911"/>
</g>
<defs>
<clipPath id="clip0_1528_2510">
<rect width="17" height="17" fill="white"/>
</clipPath>
</defs>
</svg>
