<svg width="23" height="24" viewBox="0 0 23 24" fill="none" xmlns="http://www.w3.org/2000/svg">
<path d="M9.5835 5C9.5835 3.89543 10.4416 3 11.5002 3C12.5587 3 13.4168 3.89543 13.4168 5C13.4168 6.10457 12.5587 7 11.5002 7C10.4416 7 9.5835 6.10457 9.5835 5Z" fill="black"/>
<path d="M9.5835 12C9.5835 10.8954 10.4416 10 11.5002 10C12.5587 10 13.4168 10.8954 13.4168 12C13.4168 13.1046 12.5587 14 11.5002 14C10.4416 14 9.5835 13.1046 9.5835 12Z" fill="black"/>
<path d="M11.5002 17C10.4416 17 9.5835 17.8954 9.5835 19C9.5835 20.1046 10.4416 21 11.5002 21C12.5587 21 13.4168 20.1046 13.4168 19C13.4168 17.8954 12.5587 17 11.5002 17Z" fill="black"/>
</svg>
