<svg width="30" height="30" viewBox="0 0 30 30" fill="none" xmlns="http://www.w3.org/2000/svg">
<path d="M7.6506 19.0749L11.7615 13.6118L16.4508 17.3782L20.4737 12.0692" stroke="#ADA4A5" stroke-width="3" stroke-linecap="round" stroke-linejoin="round"/>
<path d="M27.8029 4.21511C27.8029 5.70597 26.6209 6.91456 25.1629 6.91456C23.7048 6.91456 22.5228 5.70597 22.5228 4.21511C22.5228 2.72425 23.7048 1.51566 25.1629 1.51566C26.6209 1.51566 27.8029 2.72425 27.8029 4.21511Z" stroke="#ADA4A5" stroke-width="3" stroke-linecap="round" stroke-linejoin="round"/>
<path d="M18.1982 2.69819H8.21635C4.08028 2.69819 1.51566 5.69329 1.51566 9.92242V21.273C1.51566 25.5021 4.02999 28.4843 8.21635 28.4843H20.0337C24.1698 28.4843 26.7344 25.5021 26.7344 21.273V11.3878" stroke="#ADA4A5" stroke-width="3" stroke-linecap="round" stroke-linejoin="round"/>
</svg>
