<svg width="42" height="43" viewBox="0 0 42 43" fill="none" xmlns="http://www.w3.org/2000/svg">
<path fill-rule="evenodd" clip-rule="evenodd" d="M15.8086 37.2155V31.7209C15.8085 30.3234 16.9064 29.1878 18.2665 29.1784H23.2489C24.6156 29.1784 25.7235 30.3167 25.7235 31.7209V37.2325C25.7232 38.4191 26.6449 39.3889 27.7995 39.4167H31.121C34.4322 39.4167 37.1165 36.6588 37.1165 33.2567V17.6262C37.0988 16.2878 36.4872 15.031 35.4557 14.2134L24.0959 4.81121C22.1058 3.1741 19.2768 3.1741 17.2867 4.81121L5.97671 14.2305C4.9413 15.0447 4.32867 16.3036 4.31592 17.6432V33.2567C4.31592 36.6588 7.00017 39.4167 10.3114 39.4167H13.6329C14.8162 39.4167 15.7754 38.4312 15.7754 37.2155" fill="#02C338"/>
</svg>
