<svg width="42" height="43" viewBox="0 0 42 43" fill="none" xmlns="http://www.w3.org/2000/svg">
<path fill-rule="evenodd" clip-rule="evenodd" d="M15.8086 37.2154V31.7208C15.8085 30.3233 16.9064 29.1877 18.2665 29.1783H23.2489C24.6156 29.1783 25.7235 30.3167 25.7235 31.7208V37.2325C25.7232 38.419 26.6449 39.3888 27.7995 39.4166H31.121C34.4322 39.4166 37.1165 36.6587 37.1165 33.2566V17.6261C37.0988 16.2877 36.4872 15.0309 35.4557 14.2133L24.0959 4.81114C22.1058 3.17404 19.2768 3.17404 17.2867 4.81114L5.97671 14.2304C4.9413 15.0446 4.32867 16.3035 4.31592 17.6432V33.2566C4.31592 36.6587 7.00017 39.4166 10.3114 39.4166H13.6329C14.8162 39.4166 15.7754 38.4311 15.7754 37.2154" fill="#A5A5A7"/>
</svg>
