<svg width="23" height="21" viewBox="0 0 23 21" fill="none" xmlns="http://www.w3.org/2000/svg">
<path fill-rule="evenodd" clip-rule="evenodd" d="M10.0752 4.69216C8.33154 3.10017 5.5046 3.10017 3.76099 4.69216C2.01739 6.28415 2.01739 8.86528 3.76099 10.4573L4.50821 11.1395C4.52042 11.1507 4.53227 11.1621 4.54375 11.1738L11.5 17.5251L18.456 11.174C18.4675 11.1623 18.4795 11.1508 18.4918 11.1395L19.239 10.4573C20.9826 8.86527 20.9826 6.28415 19.239 4.69216C17.4954 3.10017 14.6685 3.10017 12.9249 4.69216L12.1777 5.3744C11.8034 5.71611 11.1966 5.71611 10.8224 5.3744L10.0752 4.69216ZM19.8839 12.3433C19.8724 12.355 19.8604 12.3666 19.8481 12.3778L12.1786 19.3804C11.9989 19.5445 11.755 19.6367 11.5008 19.6367C11.5005 19.6367 11.501 19.6367 11.5008 19.6367C11.5005 19.6367 11.4995 19.6367 11.4993 19.6367C11.245 19.6367 11.0012 19.5445 10.8214 19.3804L3.15194 12.3778C3.13958 12.3666 3.12763 12.355 3.11608 12.3433L2.40571 11.6947C-0.086405 9.4193 -0.0864086 5.73013 2.4057 3.45472C4.89781 1.17932 8.93833 1.17932 11.4304 3.45472L11.5 3.51825L11.5696 3.45472C14.0617 1.17932 18.1022 1.17932 20.5943 3.45472C23.0864 5.73013 23.0864 9.4193 20.5943 11.6947L19.8839 12.3433Z" fill="#2D3648"/>
</svg>
