<svg width="290" height="34" viewBox="0 0 290 34" fill="none" xmlns="http://www.w3.org/2000/svg">
<path d="M0.5 12C0.5 5.64873 5.64873 0.5 12 0.5H278C284.351 0.5 289.5 5.64873 289.5 12V22C289.5 28.3504 284.335 33.5 277.983 33.5H277.386H276.791H276.196H275.602H275.009H274.416H273.825H273.235H272.645H272.056H271.469H270.882H270.296H269.71H269.126H268.543H267.96H267.378H266.797H266.217H265.638H265.059H264.482H263.905H263.329H262.754H262.18H261.606H261.034H260.462H259.891H259.32H258.751H258.182H257.615H257.047H256.481H255.916H255.351H254.787H254.224H253.661H253.1H252.539H251.978H251.419H250.86H250.302H249.745H249.189H248.633H248.078H247.524H246.97H246.417H245.865H245.314H244.763H244.213H243.664H243.115H242.567H242.02H241.474H240.928H240.383H239.838H239.294H238.751H238.209H237.667H237.126H236.585H236.046H235.506H234.968H234.43H233.893H233.356H232.82H232.285H231.75H231.216H230.682H230.149H229.617H229.085H228.554H228.024H227.494H226.964H226.436H225.907H225.38H224.853H224.326H223.801H223.275H222.751H222.226H221.703H221.18H220.657H220.135H219.614H219.093H218.572H218.053H217.533H217.015H216.496H215.979H215.461H214.945H214.428H213.913H213.397H212.883H212.368H211.855H211.341H210.829H210.316H209.804H209.293H208.782H208.272H207.762H207.252H206.743H206.235H205.726H205.219H204.711H204.204H203.698H203.192H202.686H202.181H201.677H201.172H200.668H200.165H199.662H199.159H198.657H198.155H197.653H197.152H196.651H196.151H195.651H195.151H194.652H194.153H193.654H193.156H192.658H192.161H191.663H191.167H190.67H190.174H189.678H189.183H188.687H188.193H187.698H187.204H186.71H186.216H185.723H185.23H184.737H184.245H183.753H183.261H182.769H182.278H181.787H181.296H180.806H180.315H179.825H179.336H178.846H178.357H177.868H177.379H176.891H176.403H175.915H175.427H174.939H174.452H173.965H173.478H172.991H172.505H172.018H171.532H171.046H170.561H170.075H169.59H169.105H168.62H168.135H167.65H167.166H166.682H166.197H165.714H165.23H164.746H164.262H163.779H163.296H162.813H162.33H161.847H161.364H160.882H160.399H159.917H159.434H158.952H158.47H157.988H157.506H157.025H156.543H156.061H155.58H155.098H154.617H154.136H153.655H153.173H152.692H152.211H151.73H151.249H150.768H150.288H149.807H149.326H148.845H148.365H147.884H147.403H146.923H146.442H145.961H145.481H145H144.519H144.039H143.558H143.078H142.597H142.116H141.636H141.155H140.674H140.193H139.712H139.232H138.751H138.27H137.789H137.308H136.827H136.346H135.864H135.383H134.902H134.42H133.939H133.457H132.975H132.494H132.012H131.53H131.048H130.566H130.083H129.601H129.118H128.636H128.153H127.67H127.187H126.704H126.221H125.738H125.254H124.77H124.286H123.803H123.318H122.834H122.35H121.865H121.38H120.895H120.41H119.925H119.439H118.954H118.468H117.982H117.495H117.009H116.522H116.035H115.548H115.061H114.573H114.085H113.597H113.109H112.621H112.132H111.643H111.154H110.664H110.175H109.685H109.194H108.704H108.213H107.722H107.231H106.739H106.247H105.755H105.263H104.77H104.277H103.784H103.29H102.796H102.302H101.807H101.313H100.817H100.322H99.8261H99.3299H98.8334H98.3366H97.8394H97.3419H96.844H96.3458H95.8472H95.3483H94.849H94.3493H93.8493H93.3489H92.8481H92.3469H91.8454H91.3435H90.8411H90.3384H89.8353H89.3318H88.8278H88.3235H87.8187H87.3136H86.808H86.302H85.7955H85.2887H84.7814H84.2736H83.7654H83.2568H82.7477H82.2382H81.7282H81.2178H80.7069H80.1955H79.6837H79.1714H78.6586H78.1453H77.6316H77.1173H76.6026H76.0874H75.5717H75.0554H74.5387H74.0215H73.5037H72.9855H72.4667H71.9474H71.4275H70.9072H70.3863H69.8649H69.3429H68.8204H68.2973H67.7737H67.2495H66.7248H66.1995H65.6736H65.1472H64.6202H64.0926H63.5645H63.0357H62.5064H61.9765H61.446H60.9149H60.3831H59.8508H59.3179H58.7844H58.2502H57.7155H57.1801H56.644H56.1074H55.5701H55.0322H54.4936H53.9544H53.4146H52.8741H52.3329H51.7911H51.2487H50.7055H50.1617H49.6172H49.0721H48.5262H47.9797H47.4325H46.8846H46.336H45.7868H45.2368H44.6861H44.1347H43.5826H43.0297H42.4762H41.9219H41.3669H40.8112H40.2548H39.6976H39.1397H38.581H38.0216H37.4614H36.9005H36.3388H35.7764H35.2131H34.6492H34.0844H33.5189H32.9526H32.3855H31.8176H31.249H30.6795H30.1093H29.5382H28.9664H28.3937H27.8202H27.246H26.6709H26.0949H25.5182H24.9406H24.3622H23.7829H23.2029H22.6219H22.0401H21.4575H20.874H20.2897H19.7045H19.1184H18.5315H17.9437H17.355H16.7655H16.175H15.5837H14.9915H14.3984H13.8044H13.2095H12.6137H12.017C5.66476 33.5 0.5 28.3504 0.5 22V12Z" fill="#DFF91B" stroke="black"/>
</svg>
