<svg width="22" height="21" viewBox="0 0 22 21" fill="none" xmlns="http://www.w3.org/2000/svg">
<g clip-path="url(#clip0_1559_1625)">
<path d="M15.5793 0.933304C14.1372 0.921342 12.7479 1.45051 11.7106 2.40684L11.7011 2.4157L10.1244 3.91195C9.76542 4.25266 9.76373 4.80668 10.1207 5.14938C10.4776 5.49208 11.058 5.4937 11.417 5.15299L12.9887 3.66144C13.6798 3.02651 14.6041 2.67528 15.5634 2.68324C16.5247 2.69121 17.4444 3.0593 18.1242 3.70823C18.8041 4.35716 19.1897 5.235 19.198 6.15269C19.2064 7.06799 18.8387 7.94988 18.1741 8.60943L15.4301 11.2288C15.0583 11.5837 14.6109 11.8583 14.1183 12.0337C13.6256 12.2091 13.0992 12.2813 12.5748 12.2455C12.0504 12.2096 11.5401 12.0666 11.0787 11.8259C10.6173 11.5853 10.2155 11.2528 9.9006 10.8509C9.59736 10.4639 9.0229 10.3848 8.6175 10.6743C8.21211 10.9638 8.12929 11.5121 8.43253 11.8991C8.90493 12.5019 9.50762 13.0007 10.1997 13.3617C10.8918 13.7226 11.6572 13.9372 12.4438 13.991C13.2305 14.0448 14.0201 13.9365 14.759 13.6733C15.4979 13.4102 16.169 12.9985 16.7265 12.4661L19.4764 9.84119L19.4876 9.83034C20.4895 8.84018 21.0438 7.51402 21.0313 6.13749C21.0188 4.76095 20.4403 3.44419 19.4206 2.4708C18.4008 1.4974 17.0214 0.945266 15.5793 0.933304Z" fill="black"/>
<path d="M9.55591 7.00891C8.76925 6.95513 7.97968 7.06347 7.24075 7.32659C6.50186 7.58968 5.83089 8.00138 5.27334 8.53374L2.52334 11.1587L2.51218 11.1696C1.51031 12.1598 0.955938 13.4859 0.96847 14.8624C0.981001 16.239 1.55943 17.5557 2.57917 18.5291C3.59892 19.5025 4.97839 20.0547 6.42047 20.0666C7.86255 20.0786 9.25187 19.5494 10.2892 18.5931L10.3005 18.5824L11.868 17.0862C12.226 16.7445 12.226 16.1905 11.868 15.8487C11.5101 15.507 10.9297 15.507 10.5717 15.8487L9.01011 17.3393C8.31915 17.9737 7.39528 18.3246 6.4364 18.3167C5.47501 18.3087 4.55537 17.9406 3.87554 17.2917C3.19571 16.6428 2.81009 15.7649 2.80173 14.8472C2.7934 13.9319 3.16103 13.0501 3.82565 12.3905L6.56971 9.77118C6.94142 9.41623 7.38888 9.14163 7.8815 8.96622C8.37413 8.79081 8.90051 8.71858 9.42495 8.75444C9.94938 8.79029 10.4596 8.93338 10.921 9.17401C11.3824 9.41464 11.7842 9.74718 12.0992 10.1491C12.4024 10.536 12.9769 10.6151 13.3823 10.3256C13.7877 10.0362 13.8705 9.48783 13.5672 9.10086C13.0948 8.49802 12.4921 7.99921 11.8 7.63827C11.1079 7.27732 10.3426 7.06268 9.55591 7.00891Z" fill="black"/>
</g>
<defs>
<clipPath id="clip0_1559_1625">
<rect width="22" height="21" fill="white"/>
</clipPath>
</defs>
</svg>
