<svg width="40" height="37" viewBox="0 0 40 37" fill="none" xmlns="http://www.w3.org/2000/svg">
<path d="M20 0C18.0808 0 16.5217 1.50772 16.5217 3.36364C16.5217 4.9272 17.6359 6.23127 19.1304 6.60902V9.25H11.3315C7.47962 9.25 4.34783 12.2786 4.34783 16.0036V19.3409H0V29.4318H4.34783V37H35.6522V29.4318H40V19.3409H35.6522V16.0036C35.6522 12.2786 32.5204 9.25 28.6685 9.25H20.8696V6.60902C22.3675 6.23127 23.4783 4.9272 23.4783 3.36364C23.4783 1.50772 21.9192 0 20 0ZM20 1.68182C20.9579 1.68182 21.7391 2.43732 21.7391 3.36364C21.7391 4.28995 20.9579 5.04545 20 5.04545C19.0421 5.04545 18.2609 4.28995 18.2609 3.36364C18.2609 2.43732 19.0421 1.68182 20 1.68182ZM11.3315 10.9318H28.6685C31.5591 10.9318 33.913 13.2082 33.913 16.0036V35.3182H28.6957V28.5909H11.3043V35.3182H6.08696V16.0036C6.08696 13.2082 8.4409 10.9318 11.3315 10.9318ZM14.3478 15.9773C12.1909 15.9773 10.4348 17.6755 10.4348 19.7614C10.4348 21.8472 12.1909 23.5455 14.3478 23.5455C16.5048 23.5455 18.2609 21.8472 18.2609 19.7614C18.2609 17.6755 16.5048 15.9773 14.3478 15.9773ZM25.6522 15.9773C23.4952 15.9773 21.7391 17.6755 21.7391 19.7614C21.7391 21.8472 23.4952 23.5455 25.6522 23.5455C27.8091 23.5455 29.5652 21.8472 29.5652 19.7614C29.5652 17.6755 27.8091 15.9773 25.6522 15.9773ZM14.3478 17.6591C15.5469 17.6591 16.5217 18.6018 16.5217 19.7614C16.5217 20.9209 15.5469 21.8636 14.3478 21.8636C13.1488 21.8636 12.1739 20.9209 12.1739 19.7614C12.1739 18.6018 13.1488 17.6591 14.3478 17.6591ZM25.6522 17.6591C26.8512 17.6591 27.8261 18.6018 27.8261 19.7614C27.8261 20.9209 26.8512 21.8636 25.6522 21.8636C24.4531 21.8636 23.4783 20.9209 23.4783 19.7614C23.4783 18.6018 24.4531 17.6591 25.6522 17.6591ZM1.73913 21.0227H4.34783V27.75H1.73913V21.0227ZM35.6522 21.0227H38.2609V27.75H35.6522V21.0227ZM13.0435 30.2727H16.5217V35.3182H13.0435V30.2727ZM18.2609 30.2727H21.7391V35.3182H18.2609V30.2727ZM23.4783 30.2727H26.9565V35.3182H23.4783V30.2727Z" fill="#A5A5A7"/>
</svg>
