<svg width="24" height="24" viewBox="0 0 24 24" fill="none" xmlns="http://www.w3.org/2000/svg">
<path fill-rule="evenodd" clip-rule="evenodd" d="M12.5047 4C8.36524 4 5.00955 7.35569 5.00955 11.4952C5.00955 12.6933 5.28993 13.823 5.78776 14.8251C5.90537 15.0618 5.92447 15.3355 5.84088 15.5862L4.57203 19.3927L8.41692 18.1529C8.66552 18.0727 8.93563 18.093 9.16946 18.2094C10.1728 18.7089 11.3045 18.9903 12.5047 18.9903C16.6442 18.9903 19.9999 15.6346 19.9999 11.4952C19.9999 7.35569 16.6442 4 12.5047 4ZM3.00955 11.4952C3.00955 6.25113 7.26067 2 12.5047 2C17.7487 2 21.9999 6.25113 21.9999 11.4952C21.9999 16.7392 17.7487 20.9903 12.5047 20.9903C11.1362 20.9903 9.83303 20.7002 8.65542 20.1774L3.30545 21.9025C2.94664 22.0182 2.55325 21.9223 2.28799 21.6544C2.02272 21.3865 1.93066 20.9922 2.04988 20.6345L3.81723 15.3326C3.29774 14.1581 3.00955 12.8591 3.00955 11.4952Z" fill="#02C338"/>
</svg>
