<svg width="37" height="33" viewBox="0 0 37 33" fill="none" xmlns="http://www.w3.org/2000/svg">
<path d="M18.5 0C16.7248 0 15.2826 1.32485 15.2826 2.95566C15.2826 4.32959 16.3132 5.47548 17.6957 5.80742V8.12808H10.4817C6.91865 8.12808 4.02174 10.7893 4.02174 14.0625V16.9951H0V25.8621H4.02174V32.5123H32.9783V25.8621H37V16.9951H32.9783V14.0625C32.9783 10.7893 30.0814 8.12808 26.5183 8.12808H19.3043V5.80742C20.69 5.47548 21.7174 4.32959 21.7174 2.95566C21.7174 1.32485 20.2752 0 18.5 0ZM18.5 1.47783C19.386 1.47783 20.1087 2.1417 20.1087 2.95566C20.1087 3.76963 19.386 4.4335 18.5 4.4335C17.614 4.4335 16.8913 3.76963 16.8913 2.95566C16.8913 2.1417 17.614 1.47783 18.5 1.47783ZM10.4817 9.60591H26.5183C29.1922 9.60591 31.3696 11.6062 31.3696 14.0625V31.0345H26.5435V25.1232H10.4565V31.0345H5.63043V14.0625C5.63043 11.6062 7.80783 9.60591 10.4817 9.60591ZM13.2717 14.0394C11.2766 14.0394 9.65217 15.5317 9.65217 17.3645C9.65217 19.1974 11.2766 20.6897 13.2717 20.6897C15.2669 20.6897 16.8913 19.1974 16.8913 17.3645C16.8913 15.5317 15.2669 14.0394 13.2717 14.0394ZM23.7283 14.0394C21.7331 14.0394 20.1087 15.5317 20.1087 17.3645C20.1087 19.1974 21.7331 20.6897 23.7283 20.6897C25.7234 20.6897 27.3478 19.1974 27.3478 17.3645C27.3478 15.5317 25.7234 14.0394 23.7283 14.0394ZM13.2717 15.5172C14.3809 15.5172 15.2826 16.3456 15.2826 17.3645C15.2826 18.3834 14.3809 19.2118 13.2717 19.2118C12.1626 19.2118 11.2609 18.3834 11.2609 17.3645C11.2609 16.3456 12.1626 15.5172 13.2717 15.5172ZM23.7283 15.5172C24.8374 15.5172 25.7391 16.3456 25.7391 17.3645C25.7391 18.3834 24.8374 19.2118 23.7283 19.2118C22.6191 19.2118 21.7174 18.3834 21.7174 17.3645C21.7174 16.3456 22.6191 15.5172 23.7283 15.5172ZM1.6087 18.4729H4.02174V24.3842H1.6087V18.4729ZM32.9783 18.4729H35.3913V24.3842H32.9783V18.4729ZM12.0652 26.601H15.2826V31.0345H12.0652V26.601ZM16.8913 26.601H20.1087V31.0345H16.8913V26.601ZM21.7174 26.601H24.9348V31.0345H21.7174V26.601Z" fill="#02C338"/>
</svg>
