<svg width="17" height="18" viewBox="0 0 17 18" fill="none" xmlns="http://www.w3.org/2000/svg">
<path fill-rule="evenodd" clip-rule="evenodd" d="M0.708592 4.48699C0.708477 4.49439 0.708466 4.50179 0.708557 4.50919V13.5C0.708557 14.7392 1.66319 15.75 2.83356 15.75H14.1669C15.3373 15.75 16.2919 14.7392 16.2919 13.5V4.50927C16.292 4.50181 16.292 4.49435 16.2919 4.48688C16.2851 3.25366 15.3331 2.25 14.1669 2.25H2.83356C1.66729 2.25 0.715244 3.25372 0.708592 4.48699ZM2.20072 4.16546C2.31786 3.92019 2.55875 3.75 2.83356 3.75H14.1669C14.4417 3.75 14.6826 3.92019 14.7997 4.16546L8.50022 8.83451L2.20072 4.16546ZM14.8752 5.94049V13.5C14.8752 13.9108 14.5549 14.25 14.1669 14.25H2.83356C2.44559 14.25 2.12522 13.9108 2.12522 13.5V5.94049L8.09402 10.3644C8.33791 10.5452 8.66253 10.5452 8.90643 10.3644L14.8752 5.94049Z" fill="black"/>
</svg>
