<svg width="20" height="20" viewBox="0 0 20 20" fill="none" xmlns="http://www.w3.org/2000/svg">
<path d="M7.646 18.333L7.333 15.708C7.19433 15.6247 7.04167 15.5347 6.875 15.438C6.70833 15.3407 6.55567 15.2503 6.417 15.167L3.979 16.188L1.625 12.125L3.708 10.542V9.45799L1.625 7.87499L3.979 3.81199L6.417 4.83299C6.55567 4.74966 6.70833 4.65966 6.875 4.56299C7.04167 4.46566 7.19433 4.37533 7.333 4.29199L7.646 1.66699H12.354L12.667 4.29199C12.8057 4.37533 12.9583 4.46566 13.125 4.56299C13.2917 4.65966 13.4443 4.74966 13.583 4.83299L16.021 3.81199L18.375 7.87499L16.312 9.45799V10.542L18.375 12.125L16.021 16.188L13.583 15.167C13.4443 15.2503 13.2917 15.3407 13.125 15.438C12.9583 15.5347 12.8057 15.6247 12.667 15.708L12.354 18.333H7.646ZM10 12.979C10.8193 12.979 11.5207 12.6873 12.104 12.104C12.6873 11.5207 12.979 10.8193 12.979 9.99999C12.979 9.18066 12.6873 8.47933 12.104 7.89599C11.5207 7.31266 10.8193 7.02099 10 7.02099C9.18067 7.02099 8.47933 7.31266 7.896 7.89599C7.31267 8.47933 7.021 9.18066 7.021 9.99999C7.021 10.8193 7.31267 11.5207 7.896 12.104C8.47933 12.6873 9.18067 12.979 10 12.979Z" fill="black"/>
</svg>
