<svg width="16" height="16" viewBox="0 0 16 16" fill="none" xmlns="http://www.w3.org/2000/svg">
<g clip-path="url(#clip0_1606_4755)">
<path d="M8.00001 0.959961C7.29376 0.959961 6.72001 1.53371 6.72001 2.23996C6.72001 2.83496 7.13001 3.33121 7.68001 3.47496V4.47996H4.81001C3.39251 4.47996 2.24001 5.63246 2.24001 7.04996V8.31996H0.640015V12.16H2.24001V15.04H13.76V12.16H15.36V8.31996H13.76V7.04996C13.76 5.63246 12.6075 4.47996 11.19 4.47996H8.32001V3.47496C8.87126 3.33121 9.28001 2.83496 9.28001 2.23996C9.28001 1.53371 8.70626 0.959961 8.00001 0.959961ZM8.00001 1.59996C8.35251 1.59996 8.64001 1.88746 8.64001 2.23996C8.64001 2.59246 8.35251 2.87996 8.00001 2.87996C7.64751 2.87996 7.36001 2.59246 7.36001 2.23996C7.36001 1.88746 7.64751 1.59996 8.00001 1.59996ZM4.81001 5.11996H11.19C12.2538 5.11996 13.12 5.98621 13.12 7.04996V14.4H11.2V11.84H4.80001V14.4H2.88001V7.04996C2.88001 5.98621 3.74626 5.11996 4.81001 5.11996ZM5.92001 7.03996C5.12626 7.03996 4.48001 7.68621 4.48001 8.47996C4.48001 9.27371 5.12626 9.91996 5.92001 9.91996C6.71376 9.91996 7.36001 9.27371 7.36001 8.47996C7.36001 7.68621 6.71376 7.03996 5.92001 7.03996ZM10.08 7.03996C9.28626 7.03996 8.64001 7.68621 8.64001 8.47996C8.64001 9.27371 9.28626 9.91996 10.08 9.91996C10.8738 9.91996 11.52 9.27371 11.52 8.47996C11.52 7.68621 10.8738 7.03996 10.08 7.03996ZM5.92001 7.67996C6.36126 7.67996 6.72001 8.03871 6.72001 8.47996C6.72001 8.92121 6.36126 9.27996 5.92001 9.27996C5.47876 9.27996 5.12001 8.92121 5.12001 8.47996C5.12001 8.03871 5.47876 7.67996 5.92001 7.67996ZM10.08 7.67996C10.5213 7.67996 10.88 8.03871 10.88 8.47996C10.88 8.92121 10.5213 9.27996 10.08 9.27996C9.63876 9.27996 9.28001 8.92121 9.28001 8.47996C9.28001 8.03871 9.63876 7.67996 10.08 7.67996ZM1.28001 8.95996H2.24001V11.52H1.28001V8.95996ZM13.76 8.95996H14.72V11.52H13.76V8.95996ZM5.44001 12.48H6.72001V14.4H5.44001V12.48ZM7.36001 12.48H8.64001V14.4H7.36001V12.48ZM9.28001 12.48H10.56V14.4H9.28001V12.48Z" fill="#0AB051"/>
</g>
<defs>
<clipPath id="clip0_1606_4755">
<rect width="16" height="16" fill="white"/>
</clipPath>
</defs>
</svg>
